<mxfile host="65bd71144e">
    <diagram id="R1zNX-XsW4QZLv-oznx4" name="Page-1">
        <mxGraphModel dx="986" dy="576" grid="1" gridSize="10" guides="1" tooltips="1" connect="1" arrows="1" fold="1" page="1" pageScale="1" pageWidth="850" pageHeight="1100" math="0" shadow="0">
            <root>
                <mxCell id="0"/>
                <mxCell id="1" parent="0"/>
                <mxCell id="4" value="" style="edgeStyle=none;html=1;" edge="1" parent="1" source="2" target="3">
                    <mxGeometry relative="1" as="geometry"/>
                </mxCell>
                <mxCell id="2" value="INICIO" style="ellipse;whiteSpace=wrap;html=1;fillColor=#663300;" vertex="1" parent="1">
                    <mxGeometry x="365" y="20" width="120" height="80" as="geometry"/>
                </mxCell>
                <mxCell id="6" value="" style="edgeStyle=none;html=1;" edge="1" parent="1" source="3" target="5">
                    <mxGeometry relative="1" as="geometry"/>
                </mxCell>
                <mxCell id="3" value="C" style="shape=parallelogram;perimeter=parallelogramPerimeter;whiteSpace=wrap;html=1;fixedSize=1;fillColor=#000066;" vertex="1" parent="1">
                    <mxGeometry x="365" y="150" width="120" height="60" as="geometry"/>
                </mxCell>
                <mxCell id="8" value="" style="edgeStyle=none;html=1;" edge="1" parent="1" source="5" target="7">
                    <mxGeometry relative="1" as="geometry"/>
                </mxCell>
                <mxCell id="5" value="N = 0&lt;br&gt;D = 2*C" style="whiteSpace=wrap;html=1;fillColor=#003300;" vertex="1" parent="1">
                    <mxGeometry x="365" y="260" width="120" height="60" as="geometry"/>
                </mxCell>
                <mxCell id="10" value="" style="edgeStyle=none;html=1;" edge="1" parent="1" source="7" target="9">
                    <mxGeometry relative="1" as="geometry"/>
                </mxCell>
                <mxCell id="7" value="C &amp;lt; D" style="rhombus;whiteSpace=wrap;html=1;fillColor=#330033;" vertex="1" parent="1">
                    <mxGeometry x="385" y="360" width="80" height="80" as="geometry"/>
                </mxCell>
                <mxCell id="9" value="C = C*0.05+C&lt;br&gt;N = N+1" style="whiteSpace=wrap;html=1;fillColor=#00CC66;" vertex="1" parent="1">
                    <mxGeometry x="365" y="500" width="120" height="60" as="geometry"/>
                </mxCell>
                <mxCell id="11" value="" style="endArrow=none;html=1;entryX=0.5;entryY=1;entryDx=0;entryDy=0;" edge="1" parent="1" target="9">
                    <mxGeometry width="50" height="50" relative="1" as="geometry">
                        <mxPoint x="425" y="640" as="sourcePoint"/>
                        <mxPoint x="435" y="600" as="targetPoint"/>
                    </mxGeometry>
                </mxCell>
                <mxCell id="12" value="" style="endArrow=none;html=1;" edge="1" parent="1">
                    <mxGeometry width="50" height="50" relative="1" as="geometry">
                        <mxPoint x="280" y="640" as="sourcePoint"/>
                        <mxPoint x="420" y="640" as="targetPoint"/>
                    </mxGeometry>
                </mxCell>
                <mxCell id="13" value="" style="endArrow=none;html=1;" edge="1" parent="1">
                    <mxGeometry width="50" height="50" relative="1" as="geometry">
                        <mxPoint x="280" y="640" as="sourcePoint"/>
                        <mxPoint x="280" y="340" as="targetPoint"/>
                    </mxGeometry>
                </mxCell>
                <mxCell id="15" value="" style="endArrow=classic;html=1;" edge="1" parent="1">
                    <mxGeometry width="50" height="50" relative="1" as="geometry">
                        <mxPoint x="280" y="340" as="sourcePoint"/>
                        <mxPoint x="420" y="340" as="targetPoint"/>
                    </mxGeometry>
                </mxCell>
                <mxCell id="16" value="" style="endArrow=none;html=1;exitX=1;exitY=0.5;exitDx=0;exitDy=0;" edge="1" parent="1" source="7">
                    <mxGeometry width="50" height="50" relative="1" as="geometry">
                        <mxPoint x="450" y="450" as="sourcePoint"/>
                        <mxPoint x="560" y="400" as="targetPoint"/>
                    </mxGeometry>
                </mxCell>
                <mxCell id="17" value="" style="endArrow=none;html=1;exitX=0.5;exitY=0;exitDx=0;exitDy=0;" edge="1" parent="1" source="18">
                    <mxGeometry width="50" height="50" relative="1" as="geometry">
                        <mxPoint x="560" y="480" as="sourcePoint"/>
                        <mxPoint x="560" y="400" as="targetPoint"/>
                    </mxGeometry>
                </mxCell>
                <mxCell id="18" value="MES" style="shape=document;whiteSpace=wrap;html=1;boundedLbl=1;fillColor=#660066;" vertex="1" parent="1">
                    <mxGeometry x="500" y="490" width="120" height="80" as="geometry"/>
                </mxCell>
                <mxCell id="19" value="" style="endArrow=none;html=1;exitX=0.5;exitY=0;exitDx=0;exitDy=0;" edge="1" parent="1" source="20">
                    <mxGeometry width="50" height="50" relative="1" as="geometry">
                        <mxPoint x="563" y="640" as="sourcePoint"/>
                        <mxPoint x="560" y="560" as="targetPoint"/>
                    </mxGeometry>
                </mxCell>
                <mxCell id="20" value="FIN" style="ellipse;whiteSpace=wrap;html=1;fillColor=#994C00;" vertex="1" parent="1">
                    <mxGeometry x="500" y="630" width="120" height="80" as="geometry"/>
                </mxCell>
            </root>
        </mxGraphModel>
    </diagram>
</mxfile>